<svg width="1600" height="719" viewBox="0 0 1600 719" fill="none" xmlns="http://www.w3.org/2000/svg">
<path id="Vector" d="M53.5535 492.605C-55.1325 482.487 -78.2242 418.126 -76.1843 387.21L-76.1843 0.078125L1786.65 0.078125V387.21C1788.69 418.126 1765.6 482.487 1656.92 492.605C1521.06 505.252 1524.73 549.518 1503.92 585.352C1483.12 621.186 1450.07 657.02 1333.8 628.564C1217.52 600.107 1103.69 590.622 1016.79 658.074C947.275 712.036 879.978 718.149 855.234 718.149C830.49 718.149 763.194 712.036 693.674 658.074C606.774 590.622 492.948 600.107 376.674 628.564C260.399 657.02 227.353 621.186 206.546 585.352C185.739 549.518 189.411 505.252 53.5535 492.605Z" fill="#161521"/>
</svg>
