<svg width="1600" height="1619" viewBox="0 0 1600 1619" fill="none" xmlns="http://www.w3.org/2000/svg">
<path id="Subtract" d="M-212.17 1305.63C-214.363 1334.82 -189.407 1395.62 -72.5588 1405.17C50.8019 1415.26 67.1578 1446.64 82.739 1476.54C85.6062 1482.04 88.4471 1487.49 91.9236 1492.75C114.293 1526.58 149.822 1560.42 274.828 1533.55C399.835 1506.68 522.21 1497.72 615.637 1561.41C690.378 1612.36 762.728 1618.13 789.331 1618.13C815.933 1618.13 888.283 1612.36 963.024 1561.41C1056.45 1497.72 1178.83 1506.68 1303.83 1533.55C1428.84 1560.42 1464.37 1526.58 1486.74 1492.75C1490.21 1487.49 1493.05 1482.04 1495.92 1476.54C1511.5 1446.64 1527.86 1415.26 1651.22 1405.17C1768.07 1395.62 1792.89 1334.85 1790.7 1305.66V0.132812H1789.1C1781.61 31.2668 1747.94 74.2668 1651.22 82.1747C1527.86 92.2604 1511.5 123.642 1495.92 153.536C1493.05 159.037 1490.21 164.488 1486.74 169.746C1464.37 203.581 1428.84 237.415 1303.83 210.547C1178.83 183.678 1056.45 174.722 963.024 238.41C888.283 289.361 815.933 295.133 789.331 295.133C762.728 295.133 690.378 289.361 615.637 238.41C522.21 174.722 399.835 183.678 274.828 210.547C149.822 237.415 114.293 203.581 91.9236 169.746C88.4471 164.488 85.6061 159.037 82.739 153.536C67.1578 123.642 50.8018 92.2604 -72.5588 82.1747C-169.281 74.2668 -202.951 31.2668 -210.436 0.132812H-212.04L-212.17 1305.63Z" fill="#161521"/>
</svg>
