<svg width="2164" height="1316" viewBox="0 0 2164 1316" fill="none" xmlns="http://www.w3.org/2000/svg">
<path id="Union" d="M2157.63 862.037C2172.09 818.197 2168.26 717.837 2037.22 667.111C1898.88 613.557 1892.82 560.637 1887.04 510.224C1885.98 500.947 1884.92 491.755 1883.06 482.66C1871.05 424.138 1843.85 361.543 1688.51 363.839C1533.16 366.134 1388.18 341.926 1306.32 215.886C1240.82 115.054 1159.63 83.8637 1128.91 75.632C1098.19 67.4003 1012.28 53.8148 905.141 108.392C771.224 176.612 633.561 125.086 500.179 45.4277C366.797 -34.2308 311.942 6.37601 272.282 51.0545C266.119 57.9982 260.61 65.4318 255.051 72.9341C224.842 113.704 193.129 156.502 46.547 133.712C-92.2972 112.124 130.79 197.12 121.394 242.316V792.329V984.218C121.394 1015.14 70.8898 1089.61 174.646 1089.61C289.39 1100.29 304.603 1133.53 319.096 1165.19C321.763 1171.02 324.405 1176.79 327.639 1182.36C348.446 1218.19 381.492 1254.03 497.767 1225.57C614.041 1197.12 727.867 1187.63 814.767 1255.08C884.287 1309.04 951.583 1315.16 976.327 1315.16C1001.07 1315.16 1068.37 1309.04 1137.89 1255.08C1224.79 1187.63 1338.61 1197.12 1454.89 1225.57C1571.16 1254.03 1604.21 1218.19 1625.02 1182.36C1628.25 1176.79 1630.89 1171.02 1633.56 1165.19C1648.05 1133.53 1663.27 1100.29 1778.01 1089.61C1886.69 1079.49 1909.79 1015.13 1907.75 984.218V847.757H1977.53L2157.63 862.037Z" fill="#161521"/>
</svg>
