<svg width="1600" height="1619" viewBox="0 0 1600 1619" fill="none" xmlns="http://www.w3.org/2000/svg">
<path d="M-170.078 1306.27C-172.271 1335.46 -147.316 1396.25 -30.4673 1405.81C92.8933 1415.89 109.249 1447.27 124.83 1477.17C127.698 1482.67 130.539 1488.12 134.015 1493.38C156.385 1527.21 191.913 1561.05 316.92 1534.18C441.927 1507.31 564.302 1498.35 657.728 1562.04C732.469 1612.99 804.82 1618.77 831.422 1618.77C858.024 1618.77 930.375 1612.99 1005.12 1562.04C1098.54 1498.35 1220.92 1507.31 1345.92 1534.18C1470.93 1561.05 1506.46 1527.21 1528.83 1493.38C1532.31 1488.12 1535.15 1482.67 1538.01 1477.17C1553.59 1447.27 1569.95 1415.89 1693.31 1405.81C1810.16 1396.25 1834.99 1335.48 1832.79 1306.29V0.765137H1831.19C1823.7 31.8992 1790.03 74.8992 1693.31 82.807C1569.95 92.8927 1553.59 124.274 1538.01 154.169C1535.15 159.67 1532.31 165.12 1528.83 170.379C1506.46 204.213 1470.93 238.047 1345.92 211.179C1220.92 184.31 1098.54 175.354 1005.12 239.043C930.375 289.993 858.024 295.765 831.422 295.765C804.82 295.765 732.469 289.993 657.728 239.043C564.302 175.354 441.927 184.31 316.92 211.179C191.913 238.047 156.385 204.213 134.015 170.379C130.538 165.12 127.698 159.67 124.83 154.169C109.249 124.274 92.8932 92.8927 -30.4673 82.807C-127.189 74.8992 -160.859 31.8992 -168.345 0.765137H-169.949L-170.078 1306.27Z" fill="#161521"/>
</svg>
