<svg width="1600" height="1708" viewBox="0 0 1600 1708" fill="none" xmlns="http://www.w3.org/2000/svg">
<g id="Vector">
<path d="M-61.8892 1495.04C-178.738 1485.49 -203.564 1424.72 -201.371 1395.53L-201.371 0L1801.37 0V1395.53C1803.56 1424.72 1778.74 1485.49 1661.89 1495.04C1515.83 1506.98 1519.78 1548.78 1497.41 1582.61C1475.04 1616.45 1439.51 1650.28 1314.5 1623.41C1189.5 1596.55 1067.12 1587.59 973.694 1651.28C898.953 1702.23 826.602 1708 800 1708C773.398 1708 701.047 1702.23 626.306 1651.28C532.88 1587.59 410.505 1596.55 285.498 1623.41C160.491 1650.28 124.963 1616.45 102.593 1582.61C80.2236 1548.78 84.1714 1506.98 -61.8892 1495.04Z" fill="#1D1534"/>
<path d="M-61.8892 1495.04C-178.738 1485.49 -203.564 1424.72 -201.371 1395.53L-201.371 0L1801.37 0V1395.53C1803.56 1424.72 1778.74 1485.49 1661.89 1495.04C1515.83 1506.98 1519.78 1548.78 1497.41 1582.61C1475.04 1616.45 1439.51 1650.28 1314.5 1623.41C1189.5 1596.55 1067.12 1587.59 973.694 1651.28C898.953 1702.23 826.602 1708 800 1708C773.398 1708 701.047 1702.23 626.306 1651.28C532.88 1587.59 410.505 1596.55 285.498 1623.41C160.491 1650.28 124.963 1616.45 102.593 1582.61C80.2236 1548.78 84.1714 1506.98 -61.8892 1495.04Z" fill="white"/>
</g>
</svg>
