<svg width="64" height="64" viewBox="0 0 64 64" fill="none" xmlns="http://www.w3.org/2000/svg">
<g id="Frame">
<g id="Group">
<g id="Vector">
<path d="M46.5037 4.16587L47.305 6.38859C47.7446 7.60719 48.4475 8.71389 49.3635 9.62993C50.2796 10.546 51.3863 11.2488 52.6049 11.6885L54.8276 12.4897C54.8716 12.5058 54.9097 12.535 54.9365 12.5734C54.9634 12.6117 54.9778 12.6575 54.9778 12.7043C54.9778 12.7512 54.9634 12.7969 54.9365 12.8353C54.9097 12.8737 54.8716 12.9029 54.8276 12.9189L52.6049 13.7202C51.3863 14.1598 50.2796 14.8627 49.3635 15.7787C48.4475 16.6948 47.7446 17.8015 47.305 19.0201L46.5037 21.2428C46.4877 21.2868 46.4585 21.3249 46.4201 21.3518C46.3817 21.3786 46.336 21.393 46.2891 21.393C46.2422 21.393 46.1965 21.3786 46.1581 21.3518C46.1197 21.3249 46.0905 21.2868 46.0745 21.2428L45.2732 19.0201C44.8336 17.8015 44.1307 16.6948 43.2147 15.7787C42.2987 14.8627 41.192 14.1598 39.9734 13.7202L37.7506 12.9189C37.7066 12.9029 37.6686 12.8737 37.6417 12.8353C37.6148 12.7969 37.6004 12.7512 37.6004 12.7043C37.6004 12.6575 37.6148 12.6117 37.6417 12.5734C37.6686 12.535 37.7066 12.5058 37.7506 12.4897L39.9734 11.6885C41.192 11.2488 42.2987 10.546 43.2147 9.62993C44.1307 8.71389 44.8336 7.60719 45.2732 6.38859L46.0745 4.16587C46.0905 4.12183 46.1197 4.0838 46.1581 4.05692C46.1965 4.03004 46.2422 4.01563 46.2891 4.01562C46.336 4.01562 46.3817 4.03004 46.4201 4.05692C46.4585 4.0838 46.4877 4.12183 46.5037 4.16587Z" fill="#F5CBB4"/>
<path fill-rule="evenodd" clip-rule="evenodd" d="M26.7414 14.7164L28.3223 19.1067C29.1898 21.5135 30.5775 23.6994 32.3865 25.5084C34.1955 27.3174 36.3814 28.7051 38.7882 29.5726L43.1785 31.1535C43.2652 31.1853 43.34 31.2429 43.3929 31.3186C43.4458 31.3943 43.4741 31.4844 43.4741 31.5768C43.4741 31.6691 43.4458 31.7592 43.3929 31.8349C43.34 31.9106 43.2652 31.9683 43.1785 32.0001L38.7882 33.581C36.3814 34.4484 34.1955 35.8361 32.3865 37.6452C30.5775 39.4542 29.1898 41.64 28.3223 44.0468L26.7414 48.4371C26.7096 48.5238 26.652 48.5987 26.5763 48.6516C26.5006 48.7044 26.4104 48.7328 26.3181 48.7328C26.2258 48.7328 26.1357 48.7044 26.06 48.6516C25.9843 48.5987 25.9266 48.5238 25.8948 48.4371L24.3139 44.0468C23.4465 41.64 22.0588 39.4542 20.2497 37.6452C18.4407 35.8361 16.2549 34.4484 13.848 33.581L9.45773 32.0001C9.37104 31.9683 9.2962 31.9106 9.24333 31.8349C9.19046 31.7592 9.16211 31.6691 9.16211 31.5768C9.16211 31.4844 9.19046 31.3943 9.24333 31.3186C9.2962 31.2429 9.37104 31.1853 9.45773 31.1535L13.848 29.5726C16.2549 28.7051 18.4407 27.3174 20.2497 25.5084C22.0588 23.6994 23.4465 21.5135 24.3139 19.1067L25.8948 14.7164C25.9257 14.6288 25.983 14.553 26.0589 14.4994C26.1347 14.4457 26.2252 14.4169 26.3181 14.4169C26.411 14.4169 26.5016 14.4457 26.5774 14.4994C26.6532 14.553 26.7105 14.6288 26.7414 14.7164Z" fill="#E57C43"/>
<path d="M46.5037 41.9127L47.305 44.1354C47.7446 45.354 48.4475 46.4607 49.3635 47.3768C50.2796 48.2928 51.3863 48.9957 52.6049 49.4353L54.8276 50.2366C54.8716 50.2526 54.9097 50.2818 54.9365 50.3202C54.9634 50.3586 54.9778 50.4043 54.9778 50.4512C54.9778 50.498 54.9634 50.5438 54.9365 50.5822C54.9097 50.6206 54.8716 50.6497 54.8276 50.6658L52.6049 51.4671C51.3863 51.9067 50.2796 52.6095 49.3635 53.5256C48.4475 54.4416 47.7446 55.5483 47.305 56.7669L46.5037 58.9897C46.4877 59.0337 46.4585 59.0717 46.4201 59.0986C46.3817 59.1255 46.336 59.1399 46.2891 59.1399C46.2422 59.1399 46.1965 59.1255 46.1581 59.0986C46.1197 59.0717 46.0905 59.0337 46.0745 58.9897L45.2732 56.7669C44.8336 55.5483 44.1307 54.4416 43.2147 53.5256C42.2987 52.6095 41.192 51.9067 39.9734 51.4671L37.7506 50.6658C37.7066 50.6497 37.6686 50.6206 37.6417 50.5822C37.6148 50.5438 37.6004 50.498 37.6004 50.4512C37.6004 50.4043 37.6148 50.3586 37.6417 50.3202C37.6686 50.2818 37.7066 50.2526 37.7506 50.2366L39.9734 49.4353C41.192 48.9957 42.2987 48.2928 43.2147 47.3768C44.1307 46.4607 44.8336 45.354 45.2732 44.1354L46.0745 41.9127C46.1474 41.7119 46.4328 41.7119 46.5037 41.9127Z" fill="#F5CBB4"/>
</g>
</g>
</g>
</svg>
