<svg width="58" height="54" viewBox="0 0 58 54" fill="none" xmlns="http://www.w3.org/2000/svg">
<g id="Group">
<g id="Vector">
<path d="M53.2499 40.9163H42.4161V30.0792C42.4161 29.8963 42.3435 29.7209 42.2142 29.5916C42.0849 29.4623 41.9095 29.3897 41.7266 29.3897C34.9906 29.3897 29.5105 34.8698 29.5105 41.6058C29.5105 48.3418 34.9906 53.822 41.7266 53.822C48.4626 53.822 53.9394 48.3418 53.9394 41.6058C53.9394 41.423 53.8668 41.2476 53.7375 41.1183C53.6082 40.989 53.4328 40.9163 53.2499 40.9163Z" fill="#E57C43"/>
<path d="M33.6507 13.8382C33.4678 13.8382 33.2924 13.9109 33.1631 14.0402C33.0338 14.1695 32.9611 14.3449 32.9611 14.5277V29.4729C35.0144 27.9854 37.458 27.0056 40.1069 26.7194V14.5277C40.1069 14.3449 40.0343 14.1695 39.905 14.0402C39.7757 13.9109 39.6003 13.8382 39.4174 13.8382H33.6507Z" fill="#9176EA"/>
<path d="M30.3715 31.8551V22.7256C30.3715 22.5428 30.2989 22.3674 30.1696 22.2381C30.0403 22.1088 29.8649 22.0361 29.682 22.0361H23.9154C23.7325 22.0361 23.5571 22.1088 23.4278 22.2381C23.2985 22.3674 23.2259 22.5428 23.2259 22.7256V40.2267H20.6363V18.4634C20.6363 18.2805 20.5636 18.1051 20.4343 17.9758C20.305 17.8465 20.1296 17.7739 19.9468 17.7739H14.18C13.9971 17.7739 13.8217 17.8465 13.6924 17.9758C13.5631 18.1051 13.4905 18.2805 13.4905 18.4634V40.2267H10.9009V27.133C10.9009 26.9501 10.8282 26.7748 10.6989 26.6455C10.5696 26.5161 10.3942 26.4435 10.2114 26.4435H4.44804C4.26517 26.4435 4.08978 26.5161 3.96048 26.6455C3.83117 26.7748 3.75852 26.9501 3.75852 27.133V40.2267H1.94739C1.18582 40.2267 0.568359 40.8442 0.568359 41.6057C0.568359 42.3673 1.18582 42.9848 1.94739 42.9848H26.8164C26.774 42.5263 26.7526 42.0661 26.7523 41.6057C26.7523 37.8848 28.1171 34.4768 30.3715 31.8551Z" fill="#B4A2F1"/>
<path d="M3.42525 19.8471C2.91432 19.2823 2.95811 18.4102 3.52294 17.8994L16.8575 5.83823C17.1105 5.60934 17.4395 5.4824 17.7807 5.48193C18.1219 5.48146 18.4511 5.60751 18.7048 5.8357L26.2767 12.6474L36.0881 2.83619H35.7192C34.9576 2.83619 34.3402 2.21873 34.3402 1.45716C34.3402 0.695587 34.9576 0.078125 35.7192 0.078125H39.4174C40.179 0.078125 40.7965 0.695587 40.7965 1.45716V5.15204C40.7965 5.91361 40.179 6.53108 39.4174 6.53108C38.6559 6.53108 38.0384 5.91361 38.0384 5.15204V4.78649L27.302 15.5227C26.7835 16.0412 25.9499 16.0634 25.4046 15.5728L17.785 8.71811L5.37302 19.9447C5.11987 20.1744 4.79019 20.3014 4.44838 20.3011C4.25556 20.3013 4.06483 20.261 3.88857 20.1828C3.71232 20.1046 3.55447 19.9903 3.42525 19.8471Z" fill="#E57C43"/>
<path d="M45.3555 25.7608C45.1727 25.7608 44.9973 25.8334 44.868 25.9627C44.7387 26.092 44.666 26.2674 44.666 26.4503V37.9769C44.666 38.1598 44.7387 38.3352 44.868 38.4645C44.9973 38.5938 45.1727 38.6664 45.3555 38.6664H56.8788C57.0617 38.6664 57.2371 38.5938 57.3664 38.4645C57.4957 38.3352 57.5684 38.1598 57.5684 37.9769C57.5684 31.2409 52.0897 25.7608 45.3555 25.7608Z" fill="#EFB08E"/>
</g>
</g>
</svg>
