<svg width="21" height="21" viewBox="0 0 21 21" fill="none" xmlns="http://www.w3.org/2000/svg">
<path id="Vector" d="M16.0357 2.13491V1.68839C16.0357 1.18527 15.6267 0.776245 15.1236 0.776245C14.6205 0.776245 14.2114 1.18562 14.2114 1.68839V2.07172H11.4042V1.68839C11.4042 1.18527 10.9948 0.776245 10.492 0.776245C9.98925 0.776245 9.57988 1.18562 9.57988 1.68839V2.07172H6.77261V1.68839C6.77261 1.18527 6.36324 0.776245 5.86046 0.776245C5.35769 0.776245 4.94832 1.18562 4.94832 1.68839V2.13526C2.62542 2.50158 0.910156 4.45295 0.910156 6.80155V16.1772C0.910156 18.7851 3.06674 20.907 5.71776 20.907H15.2659C17.917 20.907 20.0735 18.7851 20.0735 16.1772V6.80155C20.0732 4.45295 18.3579 2.50158 16.0357 2.13491ZM14.9055 1.68839C14.9055 1.63065 14.9285 1.57528 14.9693 1.53445C15.0101 1.49362 15.0655 1.47068 15.1232 1.47068C15.181 1.47068 15.2364 1.49362 15.2772 1.53445C15.318 1.57528 15.3409 1.63065 15.3409 1.68839V3.12241C15.3409 3.18015 15.318 3.23552 15.2772 3.27635C15.2364 3.31718 15.181 3.34011 15.1232 3.34011C15.0655 3.34011 15.0101 3.31718 14.9693 3.27635C14.9285 3.23552 14.9055 3.18015 14.9055 3.12241V1.68839ZM10.274 1.68839C10.274 1.63065 10.2969 1.57528 10.3377 1.53445C10.3786 1.49362 10.4339 1.47068 10.4917 1.47068C10.5494 1.47068 10.6048 1.49362 10.6456 1.53445C10.6864 1.57528 10.7094 1.63065 10.7094 1.68839V3.12241C10.7094 3.18015 10.6864 3.23552 10.6456 3.27635C10.6048 3.31718 10.5494 3.34011 10.4917 3.34011C10.4339 3.34011 10.3786 3.31718 10.3377 3.27635C10.2969 3.23552 10.274 3.18015 10.274 3.12241V1.68839ZM5.64206 1.68839C5.64206 1.63065 5.665 1.57528 5.70583 1.53445C5.74666 1.49362 5.80203 1.47068 5.85977 1.47068C5.91751 1.47068 5.97288 1.49362 6.01371 1.53445C6.05454 1.57528 6.07748 1.63065 6.07748 1.68839V3.12241C6.07748 3.18015 6.05454 3.23552 6.01371 3.27635C5.97288 3.31718 5.91751 3.34011 5.85977 3.34011C5.80203 3.34011 5.74666 3.31718 5.70583 3.27635C5.665 3.23552 5.64206 3.18015 5.64206 3.12241V1.68839ZM4.94762 2.83526V3.12206C4.94762 3.62518 5.35665 4.03421 5.85977 4.03421C6.36289 4.03421 6.77192 3.62483 6.77192 3.12206V2.76616H9.57919V3.12241C9.57919 3.62553 9.98856 4.03455 10.4913 4.03455C10.9941 4.03455 11.4035 3.62518 11.4035 3.12241V2.76616H14.2107V3.12241C14.2107 3.62553 14.6201 4.03455 15.1229 4.03455C15.6257 4.03455 16.035 3.62518 16.035 3.12241V2.83526C17.9371 3.18595 19.3333 4.78732 19.3742 6.71543H1.60876C1.64939 4.78732 3.04556 3.18595 4.94762 2.83526ZM19.3788 16.1772C19.3788 18.4021 17.5336 20.2125 15.2656 20.2125H5.71741C3.44937 20.2125 1.60425 18.4021 1.60425 16.1772V7.41022H19.3784L19.3788 16.1772Z" fill="white"/>
</svg>
