<svg width="24" height="22" viewBox="0 0 24 22" fill="none" xmlns="http://www.w3.org/2000/svg">
<g id="Vector">
<path fill-rule="evenodd" clip-rule="evenodd" d="M16.6597 9.46474L13.2424 13.6738C13.1024 13.852 12.8925 13.9633 12.6592 13.9856C12.426 14.019 12.1927 13.9522 12.0061 13.8186L8.71703 11.3577L5.76622 15.0211C5.60293 15.2327 5.33468 15.3441 5.07808 15.3441C4.89147 15.3441 4.70486 15.2884 4.54157 15.1659C4.15669 14.8875 4.08671 14.3642 4.37829 13.9967L7.87727 9.66517C8.01723 9.48701 8.22717 9.37566 8.46044 9.35339C8.6937 9.31999 8.92697 9.3868 9.11358 9.52042L12.4026 11.9813L15.2718 8.44032C15.575 8.07286 16.1232 8.00605 16.5081 8.29556C16.8813 8.57394 16.9513 9.09729 16.6597 9.46474ZM22.608 6.80346C21.9899 7.08184 21.2901 7.23773 20.5669 7.23773C17.8377 7.23773 15.61 5.11094 15.61 2.50533C15.61 1.79269 15.7733 1.12459 16.0766 0.523292C14.7936 0.267186 13.3007 0.1447 11.5745 0.1447C3.16531 0.1447 0.179504 2.98414 0.179504 11.0237C0.179504 19.0632 3.16531 21.9026 11.5745 21.9026C19.9954 21.9026 22.9812 19.0632 22.9812 11.0237C22.9812 9.40907 22.8646 8.00605 22.608 6.80346Z" fill="white"/>
<path d="M20.5669 5.01071C21.0568 5.01071 21.5233 4.87709 21.9082 4.65439C22.6663 4.22013 23.1795 3.4184 23.1795 2.50533C23.1795 1.12458 22.0132 -6.10352e-05 20.5669 -6.10352e-05C19.6222 -6.10352e-05 18.7941 0.478747 18.3276 1.20253C18.0826 1.58112 17.9427 2.02652 17.9427 2.50533C17.9427 3.88607 19.1207 5.01071 20.5669 5.01071Z" fill="#E57C43"/>
</g>
</svg>
