<svg width="21" height="20" viewBox="0 0 21 20" fill="none" xmlns="http://www.w3.org/2000/svg">
<g id="instagram (1) 1">
<path id="Vector" d="M14.668 1.66406H6.33464C4.03345 1.66406 2.16797 3.52954 2.16797 5.83073V14.1641C2.16797 16.4653 4.03345 18.3307 6.33464 18.3307H14.668C16.9692 18.3307 18.8346 16.4653 18.8346 14.1641V5.83073C18.8346 3.52954 16.9692 1.66406 14.668 1.66406Z" stroke="white" strokeWidth="2" stroke-linecap="round" stroke-linejoin="round"/>
<path id="Vector_2" d="M13.8337 9.4772C13.9366 10.1707 13.8181 10.8791 13.4952 11.5014C13.1723 12.1237 12.6614 12.6284 12.0351 12.9436C11.4088 13.2588 10.6991 13.3685 10.0069 13.2571C9.31468 13.1458 8.67521 12.8189 8.17944 12.3232C7.68367 11.8274 7.35685 11.1879 7.24546 10.4957C7.13408 9.8035 7.24379 9.09378 7.55901 8.46752C7.87423 7.84125 8.3789 7.33032 9.00123 7.00741C9.62356 6.68449 10.3319 6.56603 11.0254 6.66887C11.7328 6.77377 12.3878 7.10342 12.8935 7.60913C13.3992 8.11483 13.7288 8.76977 13.8337 9.4772Z" stroke="white" strokeWidth="2" stroke-linecap="round" stroke-linejoin="round"/>
<path id="Vector_3" d="M15.082 5.41406H15.0904" stroke="white" strokeWidth="2" stroke-linecap="round" stroke-linejoin="round"/>
</g>
</svg>
