<svg width="21" height="20" viewBox="0 0 21 20" fill="none" xmlns="http://www.w3.org/2000/svg">
<g id="medium 1" clip-path="url(#clip0_5342_19918)">
<path id="Vector" d="M18.9042 3.94677L20.5 2.4201V2.08594H14.9717L11.0317 11.8926L6.54917 2.08594H0.7525V2.4201L2.61667 4.66427C2.79833 4.8301 2.89333 5.0726 2.86917 5.31677V14.1359C2.92667 14.4534 2.82333 14.7801 2.6 15.0109L0.5 17.5559V17.8859H6.45417V17.5518L4.35417 15.0109C4.12667 14.7793 4.01917 14.4584 4.065 14.1359V6.5076L9.29167 17.8901H9.89917L14.3933 6.5076V15.5751C14.3933 15.8143 14.3933 15.8634 14.2367 16.0201L12.62 17.5843V17.9193H20.4633V17.5851L18.905 16.0593C18.7683 15.9559 18.6975 15.7826 18.7267 15.6143V4.39177C18.6975 4.2226 18.7675 4.04927 18.9042 3.94677Z" fill="white"/>
</g>
<defs>
<clipPath id="clip0_5342_19918">
<rect width="20" height="20" fill="white" transform="translate(0.5)"/>
</clipPath>
</defs>
</svg>
