<svg width="24" height="25" viewBox="0 0 24 25" fill="none" xmlns="http://www.w3.org/2000/svg">
<g id="Iconly/Curved/Bold/Document">
<path id="Fill 396" fill-rule="evenodd" clip-rule="evenodd" d="M15.5949 13.1875H8.37489C7.96089 13.1875 7.62489 12.8515 7.62489 12.4375C7.62489 12.0235 7.96089 11.6875 8.37489 11.6875H15.5949C16.0089 11.6875 16.3449 12.0235 16.3449 12.4375C16.3449 12.8515 16.0089 13.1875 15.5949 13.1875ZM15.5949 16.9465H8.37489C7.96089 16.9465 7.62489 16.6105 7.62489 16.1965C7.62489 15.7825 7.96089 15.4465 8.37489 15.4465H15.5949C16.0089 15.4465 16.3449 15.7825 16.3449 16.1965C16.3449 16.6105 16.0089 16.9465 15.5949 16.9465ZM8.37489 7.92651H11.1299C11.5439 7.92651 11.8799 8.26251 11.8799 8.67651C11.8799 9.09051 11.5439 9.42651 11.1299 9.42651H8.37489C7.96089 9.42651 7.62489 9.09051 7.62489 8.67651C7.62489 8.26251 7.96089 7.92651 8.37489 7.92651ZM11.9999 2.74951C5.43489 2.74951 3.10889 5.30151 3.10889 12.5005C3.10889 19.6985 5.43489 22.2505 11.9999 22.2505C18.5639 22.2505 20.8909 19.6985 20.8909 12.5005C20.8909 5.30151 18.5639 2.74951 11.9999 2.74951Z" fill="white"/>
</g>
</svg>
