<svg width="55" height="55" viewBox="0 0 55 55" fill="none" xmlns="http://www.w3.org/2000/svg">
<g id="Frame" clip-path="url(#clip0_5567_11517)">
<g id="Group">
<g id="Vector">
<path d="M18.1816 19.2734C27.9396 19.2734 35.584 15.1036 35.584 9.78125C35.584 4.45887 27.9396 0.078125 18.1816 0.078125C8.42367 0.078125 0.568359 4.45887 0.568359 9.78125C0.568359 15.1036 8.42367 19.2734 18.1816 19.2734Z" fill="#B4A2F1"/>
<path d="M18.1816 28.7656L18.1865 28.7654C19.2227 26.289 20.7322 24.0386 22.6302 22.1403C21.2014 22.3209 19.7249 22.4375 18.1816 22.4375C10.6705 22.4375 4.14649 20.1977 0.568359 16.6957V19.2734C0.568359 24.5958 8.42367 28.7656 18.1816 28.7656Z" fill="#9176EA"/>
<path d="M16.5996 36.6758C16.5996 35.0266 16.8157 33.4304 17.1842 31.8925C10.1191 31.701 3.9846 29.5315 0.568359 26.1879V28.7656C0.568359 33.8057 7.6624 37.7665 16.6757 38.1772L16.6669 38.0579C16.6333 37.6001 16.5996 37.142 16.5996 36.6758Z" fill="#B4A2F1"/>
<path d="M0.568359 35.68V38.2578C0.568359 43.5802 8.42367 47.75 18.1816 47.75C18.5564 47.75 18.9234 47.7266 19.2904 47.7033C19.4654 47.6921 19.6405 47.681 19.8164 47.6724C18.5863 45.7397 17.69 43.6138 17.1649 41.3838C10.1085 41.189 3.98154 39.0207 0.568359 35.68Z" fill="#9176EA"/>
<path fill-rule="evenodd" clip-rule="evenodd" d="M37.166 19.2734C27.5704 19.2734 19.7637 27.0801 19.7637 36.6758C19.7637 46.2714 27.5704 54.0781 37.166 54.0781C46.7617 54.0781 54.5684 46.2714 54.5684 36.6758C54.5684 27.0801 46.7617 19.2734 37.166 19.2734ZM41.9121 39.8398C41.9121 37.2227 39.7831 35.0938 37.166 35.0938C36.2932 35.0938 35.584 34.3846 35.584 33.5117C35.584 32.6389 36.2932 31.9297 37.166 31.9297C38.0389 31.9297 38.748 32.6389 38.748 33.5117H41.9121C41.9121 31.4519 40.5855 29.7123 38.748 29.057V25.6016H35.584V29.057C33.7465 29.7123 32.4199 31.4519 32.4199 33.5117C32.4199 36.1288 34.5489 38.2578 37.166 38.2578C38.0389 38.2578 38.748 38.967 38.748 39.8398C38.748 40.7127 38.0389 41.4219 37.166 41.4219C36.2932 41.4219 35.584 40.7127 35.584 39.8398H32.4199C32.4199 41.8996 33.7465 43.6393 35.584 44.2945V47.75H38.748V44.2945C40.5855 43.6393 41.9121 41.8996 41.9121 39.8398Z" fill="#E57C43"/>
</g>
</g>
</g>
<defs>
<clipPath id="clip0_5567_11517">
<rect width="54" height="54" fill="white" transform="translate(0.568359 0.078125)"/>
</clipPath>
</defs>
</svg>
