<svg width="59" height="66" viewBox="0 0 59 66" fill="none" xmlns="http://www.w3.org/2000/svg">
<g id="usdt">
<g id="Group">
<path id="Vector" d="M29.5046 59.3827C45.03 59.3827 57.6158 46.7968 57.6158 31.2714C57.6158 15.746 45.03 3.16016 29.5046 3.16016C13.9791 3.16016 1.39331 15.746 1.39331 31.2714C1.39331 46.7968 13.9791 59.3827 29.5046 59.3827Z" fill="#26A17B"/>
<path id="Vector_2" fill-rule="evenodd" clip-rule="evenodd" d="M32.8815 33.6971V33.6935C32.6882 33.7076 31.692 33.7673 29.4695 33.7673C27.6949 33.7673 26.4458 33.7146 26.0065 33.6935V33.6988C19.1755 33.3984 14.0768 32.2089 14.0768 30.7858C14.0768 29.3644 19.1755 28.175 26.0065 27.8692V32.5146C26.4528 32.5463 27.7318 32.6218 29.4993 32.6218C31.62 32.6218 32.6829 32.534 32.8815 32.5164V27.8728C39.6985 28.1767 44.7848 29.3662 44.7848 30.7858C44.7848 32.2089 39.6985 33.3949 32.8815 33.6971ZM32.8815 27.3896V23.2326H42.3936V16.8936H16.4944V23.2326H26.0065V27.3878C18.2759 27.7427 12.4622 29.2748 12.4622 31.1091C12.4622 32.9433 18.2759 34.4736 26.0065 34.8303V48.1515H32.8815V34.8268C40.5998 34.4719 46.3995 32.9416 46.3995 31.1091C46.3995 29.2766 40.5998 27.7463 32.8815 27.3896Z" fill="white"/>
</g>
</g>
</svg>
