<svg width="61" height="61" viewBox="0 0 61 61" fill="none" xmlns="http://www.w3.org/2000/svg">
<g id="Group">
<path id="Vector" d="M30.9172 60.4961C47.4777 60.4961 60.9026 47.0712 60.9026 30.5107C60.9026 13.9503 47.4777 0.525391 30.9172 0.525391C14.3568 0.525391 0.931885 13.9503 0.931885 30.5107C0.931885 47.0712 14.3568 60.4961 30.9172 60.4961Z" fill="#F3BA2F"/>
<path id="Vector_2" d="M23.638 27.5203L30.917 20.2414L38.1997 27.5241L42.4351 23.2886L30.917 11.7705L19.4026 23.2849L23.638 27.5203ZM12.1761 30.5113L16.4116 26.2759L20.647 30.5113L16.4116 34.7468L12.1761 30.5113ZM23.638 33.5024L30.917 40.7813L38.1997 33.4986L42.4351 37.7322L30.917 49.2522L19.4026 37.7378L19.397 37.7322L23.638 33.5024ZM41.187 30.5113L45.4224 26.2759L49.6578 30.5113L45.4224 34.7468L41.187 30.5113ZM35.2124 30.5076H35.2161V30.5113L30.917 34.8105L26.6235 30.5188L26.616 30.5113L26.6235 30.5057L27.375 29.7523L27.7404 29.3869L30.917 26.2122L35.2143 30.5095L35.2124 30.5076Z" fill="white"/>
</g>
</svg>
