<svg width="37" height="36" viewBox="0 0 37 36" fill="none" xmlns="http://www.w3.org/2000/svg">
<g id="headphones-3 1">
<g id="Group">
<path id="Vector" d="M35.1677 22.5987V18.0355C35.1677 8.79498 27.6763 1.30371 18.4358 1.30371C9.19519 1.30371 1.70386 8.79498 1.70386 18.0355V22.5987" stroke="white" stroke-width="1.74479" stroke-miterlimit="10" stroke-linecap="round" stroke-linejoin="round"/>
<path id="Vector_2" d="M10.8303 26.9606C10.8303 24.5516 8.87743 22.5986 6.46838 22.5986H1.70386V31.725C1.70386 33.4051 3.06599 34.7672 4.74602 34.7672H6.46838C8.87743 34.7672 10.8303 32.8143 10.8303 30.4052V26.9606Z" stroke="white" stroke-width="1.74479" stroke-miterlimit="10" stroke-linecap="round" stroke-linejoin="round"/>
<path id="Vector_3" d="M35.1681 22.5986H30.4036C27.9945 22.5986 26.0416 24.5516 26.0416 26.9606V30.4052C26.0416 32.8143 27.9945 34.7672 30.4036 34.7672H32.126C33.806 34.7672 35.1681 33.4051 35.1681 31.725V22.5986Z" stroke="white" stroke-width="1.74479" stroke-miterlimit="10" stroke-linecap="round" stroke-linejoin="round"/>
</g>
</g>
</svg>
