<svg width="52" height="58" viewBox="0 0 52 58" fill="none" xmlns="http://www.w3.org/2000/svg">
<g id="Group 1000002802">
<circle id="Ellipse 1170" cx="22.7659" cy="28.5864" r="28.5864" fill="#11101A"/>
<g id="Vector">
<path d="M28.8922 13.0787L29.3142 14.2434C29.5457 14.882 29.9159 15.4619 30.3983 15.9419C30.8808 16.422 31.4637 16.7903 32.1055 17.0206L33.2761 17.4405C33.2993 17.4489 33.3193 17.4642 33.3335 17.4843C33.3477 17.5044 33.3553 17.5284 33.3553 17.5529C33.3553 17.5775 33.3477 17.6015 33.3335 17.6216C33.3193 17.6417 33.2993 17.657 33.2761 17.6654L32.1055 18.0853C31.4637 18.3156 30.8808 18.6839 30.3983 19.164C29.9159 19.644 29.5457 20.2239 29.3142 20.8624L28.8922 22.0272C28.8837 22.0502 28.8683 22.0702 28.8481 22.0843C28.8279 22.0983 28.8038 22.1059 28.7791 22.1059C28.7545 22.1059 28.7304 22.0983 28.7101 22.0843C28.6899 22.0702 28.6746 22.0502 28.6661 22.0272L28.2441 20.8624C28.0126 20.2239 27.6424 19.644 27.1599 19.164C26.6775 18.6839 26.0946 18.3156 25.4528 18.0853L24.2821 17.6654C24.259 17.657 24.2389 17.6417 24.2248 17.6216C24.2106 17.6015 24.203 17.5775 24.203 17.5529C24.203 17.5284 24.2106 17.5044 24.2248 17.4843C24.2389 17.4642 24.259 17.4489 24.2821 17.4405L25.4528 17.0206C26.0946 16.7903 26.6775 16.422 27.1599 15.9419C27.6424 15.4619 28.0126 14.882 28.2441 14.2434L28.6661 13.0787C28.6746 13.0557 28.6899 13.0357 28.7101 13.0216C28.7304 13.0076 28.7545 13 28.7791 13C28.8038 13 28.8279 13.0076 28.8481 13.0216C28.8683 13.0357 28.8837 13.0557 28.8922 13.0787Z" fill="white"/>
<path fill-rule="evenodd" clip-rule="evenodd" d="M18.4839 18.6073L19.3165 20.9078C19.7733 22.169 20.5042 23.3144 21.457 24.2624C22.4098 25.2103 23.561 25.9375 24.8286 26.392L27.1408 27.2204C27.1865 27.2371 27.2259 27.2673 27.2538 27.307C27.2816 27.3466 27.2965 27.3939 27.2965 27.4422C27.2965 27.4906 27.2816 27.5378 27.2538 27.5775C27.2259 27.6172 27.1865 27.6474 27.1408 27.664L24.8286 28.4924C23.561 28.947 22.4098 29.6742 21.457 30.6221C20.5042 31.5701 19.7733 32.7155 19.3165 33.9766L18.4839 36.2772C18.4671 36.3226 18.4368 36.3618 18.3969 36.3895C18.357 36.4173 18.3096 36.4321 18.2609 36.4321C18.2123 36.4321 18.1648 36.4173 18.125 36.3895C18.0851 36.3618 18.0547 36.3226 18.038 36.2772L17.2054 33.9766C16.7485 32.7155 16.0176 31.5701 15.0649 30.6221C14.1121 29.6742 12.9609 28.947 11.6933 28.4924L9.38101 27.664C9.33535 27.6474 9.29593 27.6172 9.26809 27.5775C9.24024 27.5378 9.22531 27.4906 9.22531 27.4422C9.22531 27.3939 9.24024 27.3466 9.26809 27.307C9.29593 27.2673 9.33535 27.2371 9.38101 27.2204L11.6933 26.392C12.9609 25.9375 14.1121 25.2103 15.0649 24.2624C16.0176 23.3144 16.7485 22.169 17.2054 20.9078L18.038 18.6073C18.0543 18.5614 18.0845 18.5217 18.1244 18.4936C18.1643 18.4655 18.212 18.4504 18.2609 18.4504C18.3098 18.4504 18.3575 18.4655 18.3975 18.4936C18.4374 18.5217 18.4676 18.5614 18.4839 18.6073Z" fill="#E57C43"/>
<path d="M28.8922 32.8583L29.3142 34.0231C29.5457 34.6616 29.9159 35.2415 30.3983 35.7216C30.8808 36.2016 31.4637 36.5699 32.1055 36.8002L33.2761 37.2201C33.2993 37.2285 33.3193 37.2438 33.3335 37.2639C33.3477 37.284 33.3553 37.308 33.3553 37.3326C33.3553 37.3571 33.3477 37.3811 33.3335 37.4012C33.3193 37.4213 33.2993 37.4366 33.2761 37.445L32.1055 37.8649C31.4637 38.0953 30.8808 38.4636 30.3983 38.9436C29.9159 39.4236 29.5457 40.0035 29.3142 40.6421L28.8922 41.8068C28.8837 41.8299 28.8683 41.8498 28.8481 41.8639C28.8279 41.878 28.8038 41.8855 28.7791 41.8855C28.7545 41.8855 28.7304 41.878 28.7101 41.8639C28.6899 41.8498 28.6746 41.8299 28.6661 41.8068L28.2441 40.6421C28.0126 40.0035 27.6424 39.4236 27.1599 38.9436C26.6775 38.4636 26.0946 38.0953 25.4528 37.8649L24.2821 37.445C24.259 37.4366 24.2389 37.4213 24.2248 37.4012C24.2106 37.3811 24.203 37.3571 24.203 37.3326C24.203 37.308 24.2106 37.284 24.2248 37.2639C24.2389 37.2438 24.259 37.2285 24.2821 37.2201L25.4528 36.8002C26.0946 36.5699 26.6775 36.2016 27.1599 35.7216C27.6424 35.2415 28.0126 34.6616 28.2441 34.0231L28.6661 32.8583C28.7045 32.7531 28.8548 32.7531 28.8922 32.8583Z" fill="white"/>
</g>
</g>
</svg>
