<svg width="26" height="20" viewBox="0 0 26 20" fill="none" xmlns="http://www.w3.org/2000/svg">
<g id="Vector">
<path fill-rule="evenodd" clip-rule="evenodd" d="M19.1915 9.97514C18.0249 9.97514 16.9299 10.1987 16.0089 10.5778C19.2324 11.4624 21.5145 13.5815 21.5759 16.0602C23.2542 15.8561 25.0655 15.2534 25.0655 13.6106C25.0655 11.6374 22.3741 9.97514 19.1915 9.97514Z" fill="white"/>
<path fill-rule="evenodd" clip-rule="evenodd" d="M19.1608 8.5754H19.1813C21.361 8.5754 23.1416 6.88402 23.1416 4.82326C23.1416 2.75278 21.361 1.06141 19.1813 1.06141C18.7514 1.06141 18.3421 1.12945 17.9532 1.2461C18.6593 2.23759 19.0687 3.43322 19.0687 4.72606C19.0789 6.03833 18.6491 7.302 17.8407 8.35182C18.2602 8.49763 18.7003 8.5754 19.1608 8.5754Z" fill="white"/>
<path fill-rule="evenodd" clip-rule="evenodd" d="M9.11149 10.5681C8.19048 10.1987 7.09549 9.97514 5.93911 9.97514C2.75649 9.97514 0.0650787 11.6374 0.0650787 13.6106C0.0650787 15.2534 1.86617 15.8464 3.54447 16.0602C3.59564 13.5815 5.87771 11.4624 9.11149 10.5681Z" fill="white"/>
<path fill-rule="evenodd" clip-rule="evenodd" d="M5.93911 8.5754H5.96981C6.43032 8.5754 6.87036 8.49763 7.28993 8.35182C6.51219 7.34089 6.05168 6.08693 6.05168 4.72606C6.05168 3.43322 6.46102 2.23759 7.16713 1.2461C6.77826 1.12945 6.36892 1.06141 5.93911 1.06141C3.75938 1.06141 1.98898 2.75278 1.98898 4.82326C1.98898 6.88402 3.75938 8.5754 5.93911 8.5754Z" fill="white"/>
<path d="M12.5598 11.5664C8.5063 11.5664 5.08114 13.6622 5.08114 16.1429C5.08114 19.3506 10.7096 19.3506 12.5598 19.3506C15.7711 19.3506 20.0405 19.0201 20.0405 16.1633C20.0405 13.6709 16.6143 11.5664 12.5598 11.5664Z" fill="#E57C43"/>
<path d="M12.5608 9.45616H12.5946C13.9198 9.45227 15.1642 8.95749 16.0975 8.06417C17.0318 7.17086 17.5435 5.98592 17.5384 4.72905C17.5384 2.12103 15.3064 0 12.5608 0C9.81617 0 7.58424 2.12103 7.58424 4.72905C7.58424 7.33513 9.81617 9.45616 12.5608 9.45616Z" fill="#E57C43"/>
</g>
</svg>
