<svg width="27" height="25" viewBox="0 0 27 25" fill="none" xmlns="http://www.w3.org/2000/svg">
<g id="Vector">
<path d="M24.5096 18.4078H19.6014V13.523C19.6014 13.4406 19.5685 13.3615 19.5099 13.3032C19.4513 13.2449 19.3719 13.2122 19.289 13.2122C16.2374 13.2122 13.7546 15.6824 13.7546 18.7186C13.7546 21.7548 16.2374 24.225 19.289 24.225C22.3407 24.225 24.8219 21.7548 24.8219 18.7186C24.8219 18.6362 24.789 18.5571 24.7305 18.4988C24.6719 18.4405 24.5924 18.4078 24.5096 18.4078Z" fill="#E57C43"/>
<path d="M15.6303 6.20243C15.5475 6.20243 15.468 6.23518 15.4094 6.29346C15.3508 6.35175 15.3179 6.4308 15.3179 6.51323V13.2497C16.2481 12.5792 17.3552 12.1376 18.5553 12.0086V6.51323C18.5553 6.4308 18.5224 6.35175 18.4638 6.29346C18.4052 6.23518 18.3257 6.20243 18.2429 6.20243H15.6303Z" fill="white"/>
<path d="M14.1447 14.3234V10.2084C14.1447 10.126 14.1118 10.0469 14.0533 9.98863C13.9947 9.93034 13.9152 9.8976 13.8324 9.8976H11.2198C11.137 9.8976 11.0575 9.93034 10.999 9.98863C10.9404 10.0469 10.9075 10.126 10.9075 10.2084V18.0969H9.73428V8.2872C9.73428 8.20478 9.70137 8.12572 9.64279 8.06744C9.5842 8.00915 9.50475 7.97641 9.4219 7.97641H6.80932C6.72648 7.97641 6.64702 8.00915 6.58844 8.06744C6.52986 8.12572 6.49695 8.20478 6.49695 8.2872V18.0969H5.32376V12.195C5.32376 12.1126 5.29085 12.0335 5.23226 11.9752C5.17368 11.917 5.09423 11.8842 5.01138 11.8842H2.40036C2.31752 11.8842 2.23806 11.917 2.17948 11.9752C2.1209 12.0335 2.08799 12.1126 2.08799 12.195V18.0969H1.26747C0.92245 18.0969 0.642715 18.3752 0.642715 18.7185C0.642715 19.0618 0.92245 19.3401 1.26747 19.3401H12.5341C12.5149 19.1335 12.5052 18.9261 12.5051 18.7185C12.5051 17.0413 13.1234 15.5052 14.1447 14.3234Z" fill="white"/>
<path d="M1.937 8.91092C1.70553 8.65633 1.72537 8.26322 1.98126 8.03297L8.02234 2.59647C8.13698 2.4933 8.286 2.43608 8.44058 2.43587C8.59516 2.43566 8.74433 2.49247 8.85925 2.59533L12.2896 5.66569L16.7346 1.24331H16.5674C16.2224 1.24331 15.9427 0.96499 15.9427 0.621715C15.9427 0.27844 16.2224 0.00012207 16.5674 0.00012207H18.2429C18.5879 0.00012207 18.8676 0.27844 18.8676 0.621715V2.28717C18.8676 2.63045 18.5879 2.90876 18.2429 2.90876C17.8979 2.90876 17.6181 2.63045 17.6181 2.28717V2.1224L12.7541 6.96171C12.5192 7.19543 12.1416 7.20542 11.8945 6.98429L8.44254 3.89456L2.81942 8.9549C2.70473 9.05842 2.55537 9.11569 2.40052 9.11553C2.31316 9.11564 2.22676 9.09749 2.14691 9.06224C2.06705 9.02699 1.99554 8.97544 1.937 8.91092Z" fill="#E57C43"/>
<path d="M20.9331 11.5765C20.8502 11.5765 20.7708 11.6092 20.7122 11.6675C20.6536 11.7258 20.6207 11.8048 20.6207 11.8873V17.0829C20.6207 17.1653 20.6536 17.2443 20.7122 17.3026C20.7708 17.3609 20.8502 17.3937 20.9331 17.3937H26.1536C26.2365 17.3937 26.3159 17.3609 26.3745 17.3026C26.4331 17.2443 26.466 17.1653 26.466 17.0829C26.466 14.0466 23.9839 11.5765 20.9331 11.5765Z" fill="#EFB08E"/>
</g>
</svg>
