<svg width="57" height="57" viewBox="0 0 57 57" fill="none" xmlns="http://www.w3.org/2000/svg">
<g id="Group">
<path id="Vector" d="M28.2043 56.5604C43.7297 56.5604 56.3155 43.9746 56.3155 28.4492C56.3155 12.9237 43.7297 0.337891 28.2043 0.337891C12.6789 0.337891 0.0930176 12.9237 0.0930176 28.4492C0.0930176 43.9746 12.6789 56.5604 28.2043 56.5604Z" fill="#F7931A"/>
<path id="Vector_2" d="M40.8375 24.9697C41.3892 21.2871 38.5834 19.307 34.7497 17.9858L35.9936 12.996L32.9576 12.2405L31.7453 17.0985C30.9476 16.8982 30.1289 16.712 29.3119 16.5258L30.533 11.6362L27.497 10.8789L26.2531 15.8669C25.5924 15.7158 24.9424 15.5682 24.3134 15.4101L24.3169 15.3943L20.1283 14.3489L19.3201 17.5922C19.3201 17.5922 21.5743 18.1088 21.5269 18.1404C22.7567 18.4479 22.9781 19.2613 22.9412 19.9079L21.5251 25.5916C21.6094 25.6127 21.7184 25.6443 21.8413 25.6918L21.5198 25.6127L19.5345 33.5752C19.3834 33.9477 19.0021 34.5082 18.1412 34.2956C18.1728 34.3395 15.9345 33.7457 15.9345 33.7457L14.427 37.2209L18.3801 38.2066C19.1146 38.391 19.8349 38.5843 20.543 38.7653L19.2867 43.8112L22.321 44.5667L23.5649 39.577C24.3942 39.8001 25.1989 40.0074 25.986 40.2042L24.7456 45.1729L27.7816 45.9284L29.0378 40.8929C34.2173 41.8733 38.1107 41.478 39.75 36.794C41.0712 33.0236 39.685 30.8467 36.9599 29.4288C38.9453 28.972 40.4387 27.6666 40.8375 24.9697ZM33.8976 34.6997C32.9611 38.4719 26.6097 36.432 24.5506 35.9208L26.2197 29.2356C28.2788 29.7503 34.8797 30.7676 33.8976 34.6997ZM34.8375 24.9152C33.9819 28.3465 28.697 26.6019 26.984 26.1749L28.4949 20.1135C30.208 20.5404 35.7301 21.3363 34.8375 24.9152Z" fill="white"/>
</g>
</svg>
