<svg width="26" height="26" viewBox="0 0 26 26" fill="none" xmlns="http://www.w3.org/2000/svg">
<g id="Vector">
<path d="M9.05468 9.50195C13.5952 9.50195 17.1523 7.57148 17.1523 5.10742C17.1523 2.64336 13.5952 0.615234 9.05468 0.615234C4.51411 0.615234 0.858887 2.64336 0.858887 5.10742C0.858887 7.57148 4.51411 9.50195 9.05468 9.50195Z" fill="white"/>
<path d="M9.05468 13.8965L9.05694 13.8964C9.53912 12.7499 10.2415 11.7081 11.1247 10.8292C10.4598 10.9128 9.77277 10.9668 9.05468 10.9668C5.55959 10.9668 2.52386 9.92983 0.858887 8.30855V9.50195C0.858887 11.966 4.51411 13.8965 9.05468 13.8965Z" fill="white"/>
<path d="M8.31853 17.5586C8.31853 16.7951 8.41909 16.0561 8.59056 15.3441C5.30302 15.2555 2.44853 14.2511 0.858887 12.7031V13.8965C0.858887 16.2298 4.15988 18.0636 8.35392 18.2537L8.34984 18.1984C8.33419 17.9865 8.31853 17.7745 8.31853 17.5586Z" fill="white"/>
<path d="M0.858887 17.0976V18.291C0.858887 20.7551 4.51411 22.6855 9.05468 22.6855C9.22909 22.6855 9.39983 22.6747 9.57063 22.6639C9.65206 22.6588 9.7335 22.6536 9.81537 22.6496C9.24297 21.7548 8.82589 20.7706 8.58158 19.7382C5.29811 19.648 2.4471 18.6442 0.858887 17.0976Z" fill="white"/>
<path fill-rule="evenodd" clip-rule="evenodd" d="M17.8885 9.50195C13.4234 9.50195 9.79083 13.1162 9.79083 17.5586C9.79083 22.001 13.4234 25.6152 17.8885 25.6152C22.3535 25.6152 25.9861 22.001 25.9861 17.5586C25.9861 13.1162 22.3535 9.50195 17.8885 9.50195ZM20.0969 19.0234C20.0969 17.8118 19.1063 16.8262 17.8885 16.8262C17.4823 16.8262 17.1523 16.4979 17.1523 16.0938C17.1523 15.6896 17.4823 15.3613 17.8885 15.3613C18.2946 15.3613 18.6246 15.6896 18.6246 16.0938H20.0969C20.0969 15.1401 19.4796 14.3348 18.6246 14.0314V12.4316H17.1523V14.0314C16.2973 14.3348 15.68 15.1401 15.68 16.0938C15.68 17.3054 16.6707 18.291 17.8885 18.291C18.2946 18.291 18.6246 18.6193 18.6246 19.0234C18.6246 19.4275 18.2946 19.7559 17.8885 19.7559C17.4823 19.7559 17.1523 19.4275 17.1523 19.0234H15.68C15.68 19.9771 16.2973 20.7824 17.1523 21.0858V22.6855H18.6246V21.0858C19.4796 20.7824 20.0969 19.9771 20.0969 19.0234Z" fill="#E57C43"/>
</g>
</svg>
