<svg width="30" height="31" viewBox="0 0 30 31" fill="none" xmlns="http://www.w3.org/2000/svg">
<g id="Frame">
<g id="Group">
<path id="Vector" d="M18.377 13.9788L21.1185 15.059C21.175 15.0813 21.2234 15.1201 21.2575 15.1703C21.2917 15.2205 21.3099 15.2798 21.3099 15.3405C21.3099 15.4011 21.2917 15.4604 21.2575 15.5106C21.2234 15.5608 21.175 15.5996 21.1185 15.6219L18.377 16.7021C17.8917 16.894 17.451 17.1834 17.0819 17.5524C16.7129 17.9214 16.4235 18.3622 16.2317 18.8475L15.1514 21.5708C15.1291 21.6273 15.0903 21.6757 15.0402 21.7098C14.99 21.744 14.9307 21.7622 14.87 21.7622C14.8093 21.7622 14.75 21.744 14.6998 21.7098C14.6497 21.6757 14.6109 21.6273 14.5886 21.5708L13.5083 18.8475C13.3169 18.3619 13.0277 17.9209 12.6586 17.5518C12.2895 17.1828 11.8485 16.8935 11.3629 16.7021L8.63962 15.6219C8.58318 15.5996 8.53475 15.5608 8.50062 15.5106C8.46649 15.4604 8.44824 15.4011 8.44824 15.3405C8.44824 15.2798 8.46649 15.2205 8.50062 15.1703C8.53475 15.1201 8.58318 15.0813 8.63962 15.059L11.3629 13.9788C11.8485 13.7874 12.2895 13.4981 12.6586 13.1291C13.0277 12.76 13.3169 12.319 13.5083 11.8334L14.5886 9.11007C14.6109 9.05363 14.6497 9.0052 14.6998 8.97108C14.75 8.93695 14.8093 8.9187 14.87 8.9187C14.9307 8.9187 14.99 8.93695 15.0402 8.97108C15.0903 9.0052 15.1291 9.05363 15.1514 9.11007L16.2317 11.8334C16.4235 12.3187 16.7129 12.7595 17.0819 13.1285C17.451 13.4975 17.8917 13.7869 18.377 13.9788Z" fill="#E57C43"/>
</g>
</g>
</svg>
