<svg width="110" height="17" viewBox="0 0 110 17" fill="none" xmlns="http://www.w3.org/2000/svg">
<g id="Star">
<g id="star 1">
<g id="Group">
<path id="Vector" d="M100.235 0.28662L97.8095 5.21783L92.3871 6.00877C92.3183 6.019 92.2537 6.04825 92.2006 6.09321C92.1475 6.13817 92.108 6.19706 92.0865 6.26325C92.0651 6.32944 92.0626 6.4003 92.0792 6.46785C92.0959 6.5354 92.1311 6.59696 92.1808 6.64559L96.1038 10.4832L95.1776 15.903C95.1656 15.9715 95.1731 16.042 95.1992 16.1064C95.2253 16.1709 95.2689 16.2268 95.3251 16.2677C95.3813 16.3087 95.4479 16.333 95.5173 16.3381C95.5866 16.3431 95.656 16.3286 95.7175 16.2962L100.568 13.7379L105.418 16.297C105.48 16.3295 105.549 16.3441 105.618 16.3391C105.688 16.3341 105.754 16.3098 105.811 16.2689C105.867 16.228 105.91 16.1721 105.937 16.1076C105.963 16.0431 105.97 15.9726 105.958 15.9041L105.032 10.4832L108.956 6.64559C109.006 6.59696 109.041 6.5354 109.057 6.46785C109.074 6.4003 109.072 6.32944 109.05 6.26325C109.029 6.19706 108.989 6.13817 108.936 6.09321C108.883 6.04825 108.818 6.019 108.75 6.00877L103.327 5.21783L100.9 0.28662C100.87 0.224132 100.823 0.171431 100.764 0.134557C100.705 0.0976824 100.637 0.078125 100.568 0.078125C100.498 0.078125 100.43 0.0976824 100.372 0.134557C100.313 0.171431 100.265 0.224132 100.235 0.28662Z" fill="#E57C43"/>
</g>
</g>
<g id="star 2">
<g id="Group_2">
<path id="Vector_2" d="M77.2352 0.28662L74.8095 5.21783L69.3871 6.00877C69.3183 6.019 69.2537 6.04825 69.2006 6.09321C69.1475 6.13817 69.108 6.19706 69.0865 6.26325C69.0651 6.32944 69.0626 6.4003 69.0792 6.46785C69.0959 6.5354 69.1311 6.59696 69.1808 6.64559L73.1038 10.4832L72.1776 15.903C72.1656 15.9715 72.1731 16.042 72.1992 16.1064C72.2253 16.1709 72.2689 16.2268 72.3251 16.2677C72.3813 16.3087 72.4479 16.333 72.5172 16.3381C72.5866 16.3431 72.656 16.3286 72.7175 16.2962L77.5678 13.7379L82.4181 16.297C82.4796 16.3295 82.549 16.3441 82.6183 16.3391C82.6877 16.3341 82.7543 16.3098 82.8106 16.2689C82.8668 16.228 82.9105 16.1721 82.9365 16.1076C82.9626 16.0431 82.9701 15.9726 82.9581 15.9041L82.0318 10.4832L85.9559 6.64559C86.0056 6.59696 86.0408 6.5354 86.0575 6.46785C86.0741 6.4003 86.0716 6.32944 86.0502 6.26325C86.0287 6.19706 85.9893 6.13817 85.9362 6.09321C85.8831 6.04825 85.8185 6.019 85.7496 6.00877L80.3272 5.21783L77.9004 0.28662C77.8702 0.224132 77.8229 0.171431 77.7641 0.134557C77.7053 0.0976824 77.6372 0.078125 77.5678 0.078125C77.4984 0.078125 77.4303 0.0976824 77.3715 0.134557C77.3127 0.171431 77.2654 0.224132 77.2352 0.28662Z" fill="#E57C43"/>
</g>
</g>
<g id="star 3">
<g id="Group_3">
<path id="Vector_3" d="M54.2352 0.28662L51.8095 5.21783L46.3871 6.00877C46.3183 6.019 46.2537 6.04825 46.2006 6.09321C46.1475 6.13817 46.108 6.19706 46.0865 6.26325C46.0651 6.32944 46.0626 6.4003 46.0792 6.46785C46.0959 6.5354 46.1311 6.59696 46.1808 6.64559L50.1038 10.4832L49.1776 15.903C49.1656 15.9715 49.1731 16.042 49.1992 16.1064C49.2253 16.1709 49.2689 16.2268 49.3251 16.2677C49.3813 16.3087 49.4479 16.333 49.5172 16.3381C49.5866 16.3431 49.656 16.3286 49.7175 16.2962L54.5678 13.7379L59.4181 16.297C59.4796 16.3295 59.549 16.3441 59.6183 16.3391C59.6877 16.3341 59.7543 16.3098 59.8106 16.2689C59.8668 16.228 59.9105 16.1721 59.9365 16.1076C59.9626 16.0431 59.9701 15.9726 59.9581 15.9041L59.0318 10.4832L62.9559 6.64559C63.0056 6.59696 63.0408 6.5354 63.0575 6.46785C63.0741 6.4003 63.0716 6.32944 63.0502 6.26325C63.0287 6.19706 62.9893 6.13817 62.9362 6.09321C62.8831 6.04825 62.8185 6.019 62.7496 6.00877L57.3272 5.21783L54.9004 0.28662C54.8702 0.224132 54.8229 0.171431 54.7641 0.134557C54.7053 0.0976824 54.6372 0.078125 54.5678 0.078125C54.4984 0.078125 54.4303 0.0976824 54.3715 0.134557C54.3127 0.171431 54.2654 0.224132 54.2352 0.28662Z" fill="#E57C43"/>
</g>
</g>
<g id="star 4">
<g id="Group_4">
<path id="Vector_4" d="M31.2352 0.28662L28.8095 5.21783L23.3871 6.00877C23.3183 6.019 23.2537 6.04825 23.2006 6.09321C23.1475 6.13817 23.108 6.19706 23.0865 6.26325C23.0651 6.32944 23.0626 6.4003 23.0792 6.46785C23.0959 6.5354 23.1311 6.59696 23.1808 6.64559L27.1038 10.4832L26.1776 15.903C26.1656 15.9715 26.1731 16.042 26.1992 16.1064C26.2253 16.1709 26.2689 16.2268 26.3251 16.2677C26.3813 16.3087 26.4479 16.333 26.5172 16.3381C26.5866 16.3431 26.656 16.3286 26.7175 16.2962L31.5678 13.7379L36.4181 16.297C36.4796 16.3295 36.549 16.3441 36.6183 16.3391C36.6877 16.3341 36.7543 16.3098 36.8106 16.2689C36.8668 16.228 36.9105 16.1721 36.9365 16.1076C36.9626 16.0431 36.9701 15.9726 36.9581 15.9041L36.0318 10.4832L39.9559 6.64559C40.0056 6.59696 40.0408 6.5354 40.0575 6.46785C40.0741 6.4003 40.0716 6.32944 40.0502 6.26325C40.0287 6.19706 39.9893 6.13817 39.9362 6.09321C39.8831 6.04825 39.8185 6.019 39.7496 6.00877L34.3272 5.21783L31.9004 0.28662C31.8702 0.224132 31.8229 0.171431 31.7641 0.134557C31.7053 0.0976824 31.6372 0.078125 31.5678 0.078125C31.4984 0.078125 31.4303 0.0976824 31.3715 0.134557C31.3127 0.171431 31.2654 0.224132 31.2352 0.28662Z" fill="#E57C43"/>
</g>
</g>
<g id="star 5">
<g id="Group_5">
<path id="Vector_5" d="M8.23516 0.28662L5.80948 5.21783L0.387072 6.00877C0.318253 6.019 0.253656 6.04825 0.20056 6.09321C0.147463 6.13817 0.107971 6.19706 0.0865345 6.26325C0.0650997 6.32944 0.0625687 6.4003 0.0792294 6.46785C0.09589 6.5354 0.131079 6.59696 0.180834 6.64559L4.10377 10.4832L3.17755 15.903C3.16562 15.9715 3.17311 16.042 3.19919 16.1064C3.22527 16.1709 3.26889 16.2268 3.32511 16.2677C3.38133 16.3087 3.44789 16.333 3.51725 16.3381C3.58661 16.3431 3.656 16.3286 3.71754 16.2962L8.56781 13.7379L13.4181 16.297C13.4796 16.3295 13.549 16.3441 13.6183 16.3391C13.6877 16.3341 13.7543 16.3098 13.8106 16.2689C13.8668 16.228 13.9105 16.1721 13.9365 16.1076C13.9626 16.0431 13.9701 15.9726 13.9581 15.9041L13.0318 10.4832L16.9559 6.64559C17.0056 6.59696 17.0408 6.5354 17.0575 6.46785C17.0741 6.4003 17.0716 6.32944 17.0502 6.26325C17.0287 6.19706 16.9893 6.13817 16.9362 6.09321C16.8831 6.04825 16.8185 6.019 16.7496 6.00877L11.3272 5.21783L8.90044 0.28662C8.87018 0.224132 8.82293 0.171431 8.7641 0.134557C8.70526 0.0976824 8.63724 0.078125 8.56781 0.078125C8.49837 0.078125 8.43035 0.0976824 8.37151 0.134557C8.31268 0.171431 8.26543 0.224132 8.23516 0.28662Z" fill="#E57C43"/>
</g>
</g>
</g>
</svg>
